<svg width="512" height="512" viewBox="0 0 512 512" fill="none" xmlns="http://www.w3.org/2000/svg" role="img" aria-labelledby="title desc">
  <title id="title">Kolbe Planner logo</title>
  <desc id="desc">Círculo com gradiente azul e monograma KP em branco.</desc>
  <defs>
    <linearGradient id="bg" x1="96" y1="80" x2="416" y2="432" gradientUnits="userSpaceOnUse">
      <stop stop-color="#2563EB"/>
      <stop offset="1" stop-color="#1D4ED8"/>
    </linearGradient>
  </defs>

  <rect x="32" y="32" width="448" height="448" rx="120" fill="url(#bg)"/>

  <path d="M166 137V375H214V294L300 375H365L257 272L357 137H300L214 252V137H166Z" fill="white"/>
  <path d="M354 284C354 330 323 360 271 360H236V318H268C293 318 307 307 307 284C307 260 293 249 268 249H236V207H271C323 207 354 238 354 284Z" fill="white"/>
</svg>
